# xmcd CD database file
# Copyright (C) 1993-1998 Ti Kan
#
# Track frame offsets:
#  150
#  11963
#  23103
#  35458
#  46338
#  55733
#  66600
#  80248
#  92420
#  105893
#  119255
#  131838
#
# Disc length: 1909 seconds
#
# Revision: 1
# Processed by: cddbd v1.4b41PL1 Copyright (c) Steve Scherf et al.
# Submitted via: KiC 2.1 - (C) 1996-1998 Alwin Hoogerdijk
#
DISCID=9f07730c
DTITLE=Roy Rogers - The Best Of Roy Rogers
DYEAR=1900
DGENRE=
TTITLE0=Lovenworth
TTITLE1=Mony Can't Buy Love
TTITLE2=Happy Anniversary
TTITLE3=These Are The Good Old Days
TTITLE4=Candy Kisses
TTITLE5=Tennessee Waltze
TTITLE6=Send Me The Pillow You Dream On
TTITLE7=He'll Have To Go
TTITLE8=You And Me Against The World
TTITLE9=In Another Lifetime
TTITLE10=Lay Some Happiness On Me
TTITLE11=Talkin' About Love
EXTD=
EXTT0=
EXTT1=
EXTT2=
EXTT3=
EXTT4=
EXTT5=
EXTT6=
EXTT7=
EXTT8=
EXTT9=
EXTT10=
EXTT11=
PLAYORDER=
